<svg width="80" height="80" viewBox="0 0 80 80" fill="none" xmlns="http://www.w3.org/2000/svg">
<g clip-path="url(#clip0_129_1899)">
<path d="M70 9.97342V70.0267C69.993 70.9021 69.6419 71.7397 69.0226 72.3584C68.4033 72.9771 67.5654 73.3273 66.69 73.3334H13.31C12.4327 73.3334 11.5913 72.9851 10.9707 72.3651C10.35 71.7451 10.0009 70.904 10 70.0267V9.97342C10.007 9.09802 10.3581 8.2605 10.9774 7.64179C11.5967 7.02308 12.4346 6.67285 13.31 6.66675H66.69C68.5167 6.66675 70 8.14675 70 9.97342ZM63.3333 13.3334H16.6667V66.6668H63.3333V13.3334ZM37.6433 43.7368L51.7867 29.5967L56.5 34.3101L37.6433 53.1667L24.6767 40.2001L29.3933 35.4867L37.6433 43.7368Z" fill="#29292E"/>
<path d="M37.6434 43.7364L51.7868 29.5964L56.5001 34.3098L37.6434 53.1664L24.6768 40.1998L29.3934 35.4864L37.6434 43.7364Z" fill="#03B352"/>
</g>
<defs>
<clipPath id="clip0_129_1899">
<rect width="80" height="80" fill="white"/>
</clipPath>
</defs>
</svg>
